<svg xmlns="http://www.w3.org/2000/svg" viewBox="0 0 512 640" x="0px" y="0px"><title>element shadow</title><path d="M312.42,213.6a32.05,32.05,0,0,0-9.57.23c-12,2.24-19,15.41-13.83,26.45,2.14,4.58,6.41,9.13,14.56,12.15A45.85,45.85,0,0,0,356.83,236a56.84,56.84,0,0,0,8-16.79,66,66,0,0,0-24.42-71.87c-12-8.67-29.2-15.26-53.32-14.16,0,0-49.22,1.32-79.29,53.55A130.58,130.58,0,0,0,191.72,267c.06.53.12,1.06.19,1.6,6.7,53.12,44.26,97.31,95.34,113.35,24.67,7.74,59.28,14.61,95.18,9,24.63-3.86,41.58,24.63,26.41,44.41-20.69,27-60.13,52.71-135.31,52.71,0,0-140.58,1.38-199.15-130.4,0,0-49.78-110.55,13.67-224.65,0,0,64.43-109.09,205-109.09,0,0,17.81,0,41.89,6,87.21,21.78,140,111.84,115.06,198.2-7.6,26.35-20.31,57.63-49.07,76.57,0,0-41.95,27.05-89.1,18.06a93.74,93.74,0,0,1-75.44-82.69,80.14,80.14,0,0,1,5.85-39.47c7.78-18.36,24.49-31.73,44.33-33.67a41.34,41.34,0,0,1,19.17,2.32,40,40,0,0,1,23.09,24.6A15.21,15.21,0,0,1,312.42,213.6Z"/><text x="0" y="527" fill="#000000" font-size="5px" font-weight="bold" font-family="'Helvetica Neue', Helvetica, Arial-Unicode, Arial, Sans-serif">Created by Maxicons</text><text x="0" y="532" fill="#000000" font-size="5px" font-weight="bold" font-family="'Helvetica Neue', Helvetica, Arial-Unicode, Arial, Sans-serif">from the Noun Project</text></svg>