<svg xmlns="http://www.w3.org/2000/svg" viewBox="0 0 512 640" x="0px" y="0px"><title>element leaf</title><path d="M369.67,36.55c-7-14.29-26.55-16.47-36.28-3.89-36.05,46.63-112.59,87.9-112.59,87.9-98.08,50.7-113.51,147.68-113.51,147.68C99,324.54,118.12,362,140.75,385.83c.43.45.86.91,1.3,1.36a21.05,21.05,0,0,0,28.79,1.32,281.58,281.58,0,0,0,59.62-71.86c4-6.93,13-9.62,19.81-5.46a14.14,14.14,0,0,1,5.07,18.92c-5.26,9.56-13.73,24.34-24.05,40.31,0,0-36.92,51.11-67.3,84.49-7.47,8.21-7.06,21.14,1.47,28.23A19.25,19.25,0,0,0,191.33,482a585.66,585.66,0,0,0,45.5-50.72,8,8,0,0,1,6.24-3.06h0c58.78-.32,97.21-31.77,121-63.28,20.71-27.46,33.5-60,38.16-94.11C417.48,159.1,390.28,78.74,369.67,36.55ZM277.05,269.74a16.27,16.27,0,1,1,16.26-16.26A16.27,16.27,0,0,1,277.05,269.74Z"/><text x="0" y="527" fill="#000000" font-size="5px" font-weight="bold" font-family="'Helvetica Neue', Helvetica, Arial-Unicode, Arial, Sans-serif">Created by Maxicons</text><text x="0" y="532" fill="#000000" font-size="5px" font-weight="bold" font-family="'Helvetica Neue', Helvetica, Arial-Unicode, Arial, Sans-serif">from the Noun Project</text></svg>